<svg width="19" height="22" viewBox="0 0 19 22" fill="none" xmlns="http://www.w3.org/2000/svg">
<path d="M10.21 16.29C10.1608 16.2448 10.1072 16.2046 10.05 16.17C9.99895 16.1304 9.94143 16.1 9.88 16.08C9.82045 16.0496 9.75623 16.0293 9.69 16.02C9.49842 15.9795 9.29895 16.0005 9.12 16.08C8.9959 16.1249 8.8832 16.1966 8.78989 16.2899C8.69657 16.3832 8.62491 16.4959 8.58 16.62C8.52402 16.7387 8.49662 16.8688 8.5 17C8.49841 17.13 8.52218 17.2591 8.57 17.38C8.62798 17.4995 8.702 17.6105 8.79 17.71C8.88344 17.8027 8.99426 17.876 9.11609 17.9258C9.23793 17.9755 9.36839 18.0008 9.5 18C9.63118 18.0034 9.76132 17.976 9.88 17.92C10.0012 17.8694 10.1128 17.7983 10.21 17.71C10.3027 17.6166 10.376 17.5057 10.4258 17.3839C10.4755 17.2621 10.5008 17.1316 10.5 17C10.4984 16.8693 10.4712 16.7402 10.42 16.62C10.3724 16.4972 10.301 16.3851 10.21 16.29ZM6.05 12.17C5.99895 12.1304 5.94143 12.1 5.88 12.08C5.82176 12.0426 5.75747 12.0155 5.69 12C5.56172 11.9701 5.42828 11.9701 5.3 12L5.12 12.06L4.94 12.15L4.79 12.27C4.60253 12.4667 4.49858 12.7283 4.5 13C4.49924 13.1316 4.52446 13.2621 4.57423 13.3839C4.62399 13.5057 4.69732 13.6166 4.79 13.71C4.8872 13.7983 4.99882 13.8694 5.12 13.92C5.2715 13.9822 5.43597 14.0063 5.59895 13.9901C5.76193 13.9739 5.91843 13.9179 6.05471 13.8271C6.19099 13.7362 6.30287 13.6133 6.38051 13.4691C6.45815 13.3249 6.49918 13.1638 6.5 13C6.49632 12.7352 6.39273 12.4816 6.21 12.29L6.05 12.17ZM6.21 16.29C6.1149 16.199 6.00275 16.1276 5.88 16.08C5.69898 15.9961 5.49698 15.9682 5.3 16L5.12 16.06C5.05628 16.0819 4.99575 16.1122 4.94 16.15C4.88761 16.1869 4.83752 16.227 4.79 16.27C4.69896 16.3651 4.62759 16.4772 4.58 16.6C4.52709 16.7197 4.49977 16.8491 4.49977 16.98C4.49977 17.1109 4.52709 17.2403 4.58 17.36C4.63064 17.4812 4.70167 17.5928 4.79 17.69C4.88178 17.7863 4.99185 17.8633 5.11376 17.9165C5.23567 17.9698 5.36698 17.9981 5.5 18C5.63118 18.0034 5.76132 17.976 5.88 17.92C6.00118 17.8694 6.1128 17.7983 6.21 17.71C6.29833 17.6128 6.36936 17.5012 6.42 17.38C6.47291 17.2603 6.50023 17.1309 6.50023 17C6.50023 16.8691 6.47291 16.7397 6.42 16.62C6.37241 16.4972 6.30104 16.3851 6.21 16.29ZM9.12 12.08C8.99725 12.1276 8.8851 12.199 8.79 12.29C8.60727 12.4816 8.50368 12.7352 8.5 13C8.50082 13.1638 8.54185 13.3249 8.61949 13.4691C8.69713 13.6133 8.80901 13.7362 8.94529 13.8271C9.08156 13.9179 9.23807 13.9739 9.40105 13.9901C9.56404 14.0063 9.7285 13.9822 9.88 13.92C10.0012 13.8694 10.1128 13.7983 10.21 13.71C10.3027 13.6166 10.376 13.5057 10.4258 13.3839C10.4755 13.2621 10.5008 13.1316 10.5 13C10.4963 12.7352 10.3927 12.4816 10.21 12.29C10.0694 12.1512 9.8908 12.0572 9.69681 12.0199C9.50282 11.9825 9.30211 12.0034 9.12 12.08ZM14.21 16.29C14.1128 16.2017 14.0012 16.1306 13.88 16.08C13.6979 16.0034 13.4972 15.9825 13.3032 16.0199C13.1092 16.0572 12.9306 16.1512 12.79 16.29C12.699 16.3851 12.6276 16.4972 12.58 16.62C12.5271 16.7397 12.4998 16.8691 12.4998 17C12.4998 17.1309 12.5271 17.2603 12.58 17.38C12.6306 17.5012 12.7017 17.6128 12.79 17.71C12.8834 17.8027 12.9943 17.876 13.1161 17.9258C13.2379 17.9755 13.3684 18.0008 13.5 18C13.6312 18.0034 13.7613 17.976 13.88 17.92C14.0012 17.8694 14.1128 17.7983 14.21 17.71C14.3488 17.5694 14.4428 17.3908 14.4801 17.1968C14.5175 17.0028 14.4966 16.8021 14.42 16.62C14.3724 16.4972 14.301 16.3851 14.21 16.29ZM13.5 4H5.5C5.23478 4 4.98043 4.10536 4.79289 4.29289C4.60536 4.48043 4.5 4.73478 4.5 5V9C4.5 9.26522 4.60536 9.51957 4.79289 9.70711C4.98043 9.89464 5.23478 10 5.5 10H13.5C13.7652 10 14.0196 9.89464 14.2071 9.70711C14.3946 9.51957 14.5 9.26522 14.5 9V5C14.5 4.73478 14.3946 4.48043 14.2071 4.29289C14.0196 4.10536 13.7652 4 13.5 4ZM12.5 8H6.5V6H12.5V8ZM15.5 0H3.5C2.70435 0 1.94129 0.31607 1.37868 0.87868C0.816071 1.44129 0.5 2.20435 0.5 3V19C0.5 19.7956 0.816071 20.5587 1.37868 21.1213C1.94129 21.6839 2.70435 22 3.5 22H15.5C16.2956 22 17.0587 21.6839 17.6213 21.1213C18.1839 20.5587 18.5 19.7956 18.5 19V3C18.5 2.20435 18.1839 1.44129 17.6213 0.87868C17.0587 0.31607 16.2956 0 15.5 0ZM16.5 19C16.5 19.2652 16.3946 19.5196 16.2071 19.7071C16.0196 19.8946 15.7652 20 15.5 20H3.5C3.23478 20 2.98043 19.8946 2.79289 19.7071C2.60536 19.5196 2.5 19.2652 2.5 19V3C2.5 2.73478 2.60536 2.48043 2.79289 2.29289C2.98043 2.10536 3.23478 2 3.5 2H15.5C15.7652 2 16.0196 2.10536 16.2071 2.29289C16.3946 2.48043 16.5 2.73478 16.5 3V19ZM14.05 12.17C13.9989 12.1304 13.9414 12.1 13.88 12.08C13.8205 12.0496 13.7562 12.0293 13.69 12.02C13.5617 11.9901 13.4283 11.9901 13.3 12.02L13.12 12.08L12.94 12.17L12.79 12.29C12.6073 12.4816 12.5037 12.7352 12.5 13C12.5008 13.1638 12.5418 13.3249 12.6195 13.4691C12.6971 13.6133 12.809 13.7362 12.9453 13.8271C13.0816 13.9179 13.2381 13.9739 13.4011 13.9901C13.564 14.0063 13.7285 13.9822 13.88 13.92C14.0012 13.8694 14.1128 13.7983 14.21 13.71C14.3027 13.6166 14.376 13.5057 14.4258 13.3839C14.4755 13.2621 14.5008 13.1316 14.5 13C14.4963 12.7352 14.3927 12.4816 14.21 12.29L14.05 12.17Z" fill="#9098B1"/>
</svg>
