<svg width="21" height="20" viewBox="0 0 21 20" fill="none" xmlns="http://www.w3.org/2000/svg">
<path d="M18.54 4.82006L12.78 0.79006C11.21 -0.30994 8.79999 -0.24994 7.28999 0.92006L2.27999 4.83006C1.27999 5.61006 0.48999 7.21006 0.48999 8.47006V15.3701C0.48999 17.9201 2.55999 20.0001 5.10999 20.0001H15.89C18.44 20.0001 20.51 17.9301 20.51 15.3801V8.60006C20.51 7.25006 19.64 5.59006 18.54 4.82006ZM11.25 16.0001C11.25 16.4101 10.91 16.7501 10.5 16.7501C10.09 16.7501 9.74999 16.4101 9.74999 16.0001V13.0001C9.74999 12.5901 10.09 12.2501 10.5 12.2501C10.91 12.2501 11.25 12.5901 11.25 13.0001V16.0001Z" fill="#80C978"/>
</svg>
