<svg width="18" height="18" viewBox="0 0 18 18" fill="none" xmlns="http://www.w3.org/2000/svg">
<g clip-path="url(#clip0_510_1391)">
<path d="M17.1217 6.87833L14.2124 3.96908C14.071 3.83246 13.8815 3.75686 13.6849 3.75857C13.4883 3.76028 13.3001 3.83916 13.1611 3.97822C13.022 4.11727 12.9432 4.30538 12.9414 4.50203C12.9397 4.69868 13.0153 4.88813 13.1519 5.02958L16.0612 7.93883C16.1476 8.02698 16.2232 8.12518 16.2862 8.23133C16.2749 8.23133 16.2659 8.22533 16.2547 8.22533L4.4917 8.24933C4.29279 8.24933 4.10202 8.32835 3.96137 8.469C3.82072 8.60965 3.7417 8.80042 3.7417 8.99933C3.7417 9.19824 3.82072 9.38901 3.96137 9.52966C4.10202 9.67031 4.29279 9.74933 4.4917 9.74933L16.2502 9.72533C16.2712 9.72533 16.2884 9.71483 16.3087 9.71333C16.2422 9.8402 16.1578 9.95688 16.0582 10.0598L13.1489 12.9691C13.0773 13.0383 13.0202 13.121 12.9809 13.2125C12.9416 13.304 12.9209 13.4024 12.92 13.502C12.9191 13.6016 12.9381 13.7004 12.9758 13.7925C13.0135 13.8847 13.0692 13.9685 13.1397 14.0389C13.2101 14.1093 13.2938 14.165 13.386 14.2027C13.4782 14.2404 13.5769 14.2594 13.6765 14.2585C13.7761 14.2577 13.8745 14.237 13.966 14.1977C14.0575 14.1583 14.1403 14.1012 14.2094 14.0296L17.1187 11.1203C17.6811 10.5577 17.9971 9.79482 17.9971 8.99933C17.9971 8.20384 17.6811 7.44091 17.1187 6.87833H17.1217Z" fill="#FF5C5C"/>
<path d="M5.25 16.5H3.75C3.15326 16.5 2.58097 16.2629 2.15901 15.841C1.73705 15.419 1.5 14.8467 1.5 14.25V3.75C1.5 3.15326 1.73705 2.58097 2.15901 2.15901C2.58097 1.73705 3.15326 1.5 3.75 1.5H5.25C5.44891 1.5 5.63968 1.42098 5.78033 1.28033C5.92098 1.13968 6 0.948912 6 0.75C6 0.551088 5.92098 0.360322 5.78033 0.21967C5.63968 0.0790176 5.44891 0 5.25 0L3.75 0C2.7558 0.00119089 1.80267 0.396661 1.09966 1.09966C0.396661 1.80267 0.00119089 2.7558 0 3.75L0 14.25C0.00119089 15.2442 0.396661 16.1973 1.09966 16.9003C1.80267 17.6033 2.7558 17.9988 3.75 18H5.25C5.44891 18 5.63968 17.921 5.78033 17.7803C5.92098 17.6397 6 17.4489 6 17.25C6 17.0511 5.92098 16.8603 5.78033 16.7197C5.63968 16.579 5.44891 16.5 5.25 16.5Z" fill="#FF5C5C"/>
</g>
<defs>
<clipPath id="clip0_510_1391">
<rect width="18" height="18" fill="white"/>
</clipPath>
</defs>
</svg>
