<svg width="124" height="33" viewBox="0 0 124 33" fill="none" xmlns="http://www.w3.org/2000/svg">
<path d="M0 5.11469C0 2.28992 2.28993 0 5.1147 0H24.721V32.8193H5.11469C2.28992 32.8193 0 30.5294 0 27.7046V5.11469Z" fill="#0D894B"/>
<rect x="24.7209" width="24.721" height="32.8193" fill="#74C82C"/>
<rect x="49.4421" width="24.721" height="32.8193" fill="#FBC605"/>
<rect x="74.1631" width="24.721" height="32.8193" fill="#F37016"/>
<path d="M98.8843 0H118.491C121.315 0 123.605 2.28993 123.605 5.1147V27.7046C123.605 30.5294 121.315 32.8193 118.491 32.8193H98.8843V0Z" fill="#EF3320"/>
<path d="M14.4456 19.8936H10.1799L9.47411 21.9343H7.21853L11.0699 11.2088H13.571L17.4224 21.9343H15.1514L14.4456 19.8936ZM13.8625 18.175L12.3128 13.6945L10.763 18.175H13.8625Z" fill="white"/>
<path d="M38.6755 16.4411C39.2791 16.5537 39.7752 16.8554 40.1639 17.3464C40.5526 17.8375 40.747 18.4001 40.747 19.0343C40.747 19.6071 40.6038 20.1135 40.3174 20.5534C40.0412 20.983 39.6371 21.3206 39.1052 21.5661C38.5732 21.8116 37.9441 21.9343 37.2178 21.9343H32.5993V11.2241H37.0184C37.7447 11.2241 38.3687 11.3418 38.8904 11.5771C39.4223 11.8123 39.8212 12.1397 40.0872 12.5591C40.3634 12.9785 40.5015 13.4542 40.5015 13.9861C40.5015 14.6101 40.3327 15.1318 39.9951 15.5512C39.6678 15.9706 39.2279 16.2672 38.6755 16.4411ZM34.7474 15.6432H36.7115C37.223 15.6432 37.6168 15.5307 37.893 15.3057C38.1692 15.0704 38.3073 14.7379 38.3073 14.3083C38.3073 13.8787 38.1692 13.5462 37.893 13.3109C37.6168 13.0757 37.223 12.958 36.7115 12.958H34.7474V15.6432ZM36.911 20.1851C37.4327 20.1851 37.8367 20.0623 38.1231 19.8168C38.4198 19.5713 38.5681 19.2235 38.5681 18.7734C38.5681 18.3131 38.4147 17.9551 38.1078 17.6994C37.8009 17.4334 37.3866 17.3004 36.8649 17.3004H34.7474V20.1851H36.911Z" fill="white"/>
<path d="M57.225 16.5639C57.225 15.5103 57.4603 14.5692 57.9309 13.7406C58.4116 12.9018 59.0612 12.2522 59.8796 11.7919C60.7081 11.3213 61.6339 11.086 62.6568 11.086C63.8537 11.086 64.9022 11.3929 65.8024 12.0067C66.7026 12.6205 67.3317 13.4695 67.6897 14.5538H65.2193C64.9738 14.0423 64.626 13.6587 64.1759 13.403C63.736 13.1473 63.2246 13.0194 62.6415 13.0194C62.0175 13.0194 61.46 13.1677 60.969 13.4644C60.4882 13.7508 60.1097 14.16 59.8335 14.6919C59.5676 15.2238 59.4346 15.8478 59.4346 16.5639C59.4346 17.2697 59.5676 17.8937 59.8335 18.4359C60.1097 18.9678 60.4882 19.3821 60.969 19.6787C61.46 19.9652 62.0175 20.1084 62.6415 20.1084C63.2246 20.1084 63.736 19.9805 64.1759 19.7248C64.626 19.4588 64.9738 19.0701 65.2193 18.5586H67.6897C67.3317 19.6532 66.7026 20.5073 65.8024 21.1211C64.9124 21.7246 63.8639 22.0264 62.6568 22.0264C61.6339 22.0264 60.7081 21.7962 59.8796 21.3359C59.0612 20.8654 58.4116 20.2158 57.9309 19.3872C57.4603 18.5586 57.225 17.6175 57.225 16.5639Z" fill="white"/>
<path d="M85.3591 11.2241C86.4843 11.2241 87.4715 11.4441 88.3205 11.8839C89.1798 12.3238 89.8396 12.9529 90.2999 13.7713C90.7705 14.5794 91.0057 15.5205 91.0057 16.5946C91.0057 17.6687 90.7705 18.6098 90.2999 19.4179C89.8396 20.2158 89.1798 20.8347 88.3205 21.2745C87.4715 21.7144 86.4843 21.9343 85.3591 21.9343H81.6151V11.2241H85.3591ZM85.2824 20.1084C86.4076 20.1084 87.2771 19.8015 87.8909 19.1877C88.5046 18.574 88.8115 17.7096 88.8115 16.5946C88.8115 15.4796 88.5046 14.6101 87.8909 13.9861C87.2771 13.3519 86.4076 13.0347 85.2824 13.0347H83.7633V20.1084H85.2824Z" fill="white"/>
<path d="M109.763 12.958V15.6432H113.369V17.3464H109.763V20.1851H113.829V21.9343H107.615V11.2088H113.829V12.958H109.763Z" fill="white"/>
</svg>
