<svg width="36" height="30" viewBox="0 0 36 30" fill="none" xmlns="http://www.w3.org/2000/svg">
<path d="M33.9332 15.3701C34.3632 15.3208 34.7837 15.5196 35.0144 15.8812C35.2452 16.2427 35.2452 16.703 35.0144 17.0646C34.7837 17.4262 34.3632 17.6249 33.9332 17.5757H32.3436V21.7352C32.3476 23.6772 31.5688 25.5409 30.1792 26.9155C28.7895 28.2901 26.9029 29.0625 24.9356 29.0625H23.7209C23.0998 29.0625 22.5962 28.5655 22.5962 27.9523C22.5962 27.3392 23.0998 26.8421 23.7209 26.8421H24.9356C27.7694 26.8097 30.0494 24.5327 30.0492 21.7352V17.5757H25.8354V19.2336C25.8354 20.1561 25.4641 21.0409 24.8032 21.6933C24.1423 22.3457 23.246 22.7122 22.3113 22.7122H13.7337C11.7874 22.7122 10.2096 21.1547 10.2096 19.2336V17.5757H6.05576V21.7352C6.05576 24.5557 8.37205 26.8421 11.2293 26.8421H12.519C13.1401 26.8421 13.6437 27.3392 13.6437 27.9523C13.6437 28.5655 13.1401 29.0625 12.519 29.0625H11.3043C7.19243 29.0627 3.84749 25.7939 3.80637 21.7352V17.5757H2.06685C1.6368 17.6249 1.21629 17.4262 0.985554 17.0646C0.754815 16.703 0.754815 16.2427 0.985554 15.8812C1.21629 15.5196 1.6368 15.3208 2.06685 15.3701H33.9332ZM22.2963 7.28783C23.231 7.28783 24.1273 7.65433 24.7882 8.30669C25.4491 8.95906 25.8204 9.84386 25.8204 10.7664V12.676C25.8246 12.7871 25.7818 12.895 25.7021 12.9737C25.6224 13.0523 25.5131 13.0947 25.4005 13.0905H10.6295C10.5169 13.0947 10.4076 13.0523 10.3279 12.9737C10.2482 12.895 10.2054 12.7871 10.2096 12.676V10.7664C10.2096 8.84526 11.7874 7.28783 13.7337 7.28783H22.2963ZM24.9356 0.9375C29.0238 1.01015 32.2993 4.30265 32.2986 8.33882V9.9227C32.2986 10.5358 31.7951 11.0329 31.1739 11.0329C30.5528 11.0329 30.0492 10.5358 30.0492 9.9227V8.33882C30.0692 6.98181 29.5412 5.67274 28.5818 4.70067C27.6223 3.7286 26.3104 3.17349 24.9356 3.15789H23.7209C23.0998 3.15789 22.5962 2.66084 22.5962 2.0477C22.5962 1.43455 23.0998 0.9375 23.7209 0.9375H24.9356ZM12.444 0.9375C13.0618 0.945472 13.5606 1.43789 13.5687 2.0477C13.5606 2.65751 13.0618 3.14992 12.444 3.15789H11.2293C9.84413 3.15775 8.51672 3.70595 7.5443 4.67975C6.57188 5.65354 6.03568 6.9716 6.05576 8.33882V9.9227C6.04768 10.5325 5.54884 11.0249 4.93106 11.0329H4.91607L4.76498 11.0209C4.22181 10.9416 3.80637 10.4795 3.80637 9.9227V8.33882C3.80617 4.27991 7.11765 0.978089 11.2293 0.9375H12.444Z" fill="white"/>
</svg>
